<svg xmlns="http://www.w3.org/2000/svg" width="972.954" height="486.909" viewBox="0 0 972.954 486.909"><defs><style>.a{fill:#b51c48;}.a,.b,.c,.d,.e,.f,.g,.h,.i,.j,.n,.o{fill-rule:evenodd;}.b,.l{fill:#188c7c;}.c{fill:#183c34;}.d,.m{fill:#0d5263;}.e{fill:#ff8200;}.f,.k{fill:#1b2b41;}.g{fill:#2a5f89;}.h,.q{fill:#1a385c;}.i{fill:#cc2f22;}.j{fill:#e64460;}.n,.p{fill:#ff5c13;}.o{fill:#fff;}</style></defs><g transform="translate(0)"><g transform="translate(67.164 -214.277)"><path class="a" d="M486.293,529.573C481.7,489.317,449.182,432.3,449.182,432.3l-118.954-6.05s-18.733,57.271,43.015,78.794S486.293,529.573,486.293,529.573Z" transform="translate(10.44 46.797)"/><path class="a" d="M311.16,346.819c19.329,0,36.476,39.872,36.476,39.872s11.6-15.311,28.269-3.649,23.766,30.567,23.766,30.567,12.41-10.464,27.492-2.859,24,25.426,24,25.426l-75.116,46.956S317.564,403.992,312.5,381.9,311.16,346.819,311.16,346.819Z" transform="translate(0 0)"/></g><path class="b" d="M630.951,369.9Z" transform="translate(292.882 -247.96)"/><g transform="translate(311.373 59.859)"><path class="c" d="M274.632,315.837c-3.126-2.913-14.551-3.726-7.345,7.7,4.921,7.806-2.771,24.7,1.337,25.392,8.674,1.469,9.971-11.706,9.971-11.706S278.444,319.39,274.632,315.837Z" transform="translate(-257.273 -295.459)"/><path class="d" d="M289.743,310.268c-11.559-4.556-22.982-13-28.116-2.332s5.892,17.985,11.639,19.819,8.28-9.814,15.746-3.805,2.417,14.237,17.662,26.894,35.477,16.177,35.477,16.177S331.63,315.3,309.78,311.32C296.592,308.919,297.87,313.472,289.743,310.268Z" transform="translate(-260.302 -302.771)"/><path class="d" d="M291,313.382c-8.642,6.8-7.6,13.013-19.052,26.336-15.774,18.357,3.483,22.524,3.483,22.524s-6.6-13.08,8.994-18c10.132-3.192,25.977-46.122,6.575-30.863Z" transform="translate(-256.751 -297.982)"/><path class="d" d="M308.557,329.878c-12.682-.534-37.243-1.785-39.581,7.1-3.647,13.845,25.546,27.641,28.558,33.149s-18.5,95.8,7.936,100.5c31.49,5.6,40.984,22.858,118.778,21.579-59.143-51.908-79.793-146.1-94.086-151.816-8.155-3.259-14.569-5.1-14.569-5.1S321.239,330.411,308.557,329.878Z" transform="translate(-254.848 -285.336)"/></g><path class="c" d="M282.584,327.048c5.635-10.362,15.929-4.571,27.764,7.679l-21.709.266S281.76,328.562,282.584,327.048Z" transform="translate(65.564 -230.573)"/><path class="c" d="M274.773,347.066s-5.653-6.983-3.959-12.244-5.144,3.81-3.293,7.53S274.773,347.066,274.773,347.066Z" transform="translate(55.572 -223.047)"/><path class="c" d="M308.425,365.042c-2.042-6.026-22.7-25.806-22.7-25.806s11.491,7.14,22.431,9.339,2.312,22.492.269,16.466Z" transform="translate(67.657 -219.123)"/><path class="e" d="M350.907,548.769c61.862-.646,154.818,12.743,187.415,38.329,23.312,18.3-6.879-48.148-96.13-67.079C351.5,500.781,329.966,413.558,329.966,413.558s-40.922,135.855,20.941,135.211Z" transform="translate(87.862 -170.635)"/><path class="f" d="M316.919,576.061c61.606,5.664,149.5,32.227,179.323,61,21.326,20.581,1.272-52.365-85.584-80.3C322.4,528.384,309.873,439.419,309.873,439.419s-54.561,130.976,7.046,136.642Z" transform="translate(68.871 -153.764)"/><path class="g" d="M526.92,495.8c-3.754,18.621-26.873-62.865-13.677-70.354,13.259-7.525,21.139,3.825,29.85,22.874s12.666,25.306,12.666,25.306-23.2-5.8-28.839,22.174Z" transform="translate(213.461 -164.413)"/><path class="d" d="M682.165,454.989c-3.675-35.4-13.4-92.776-20.32-104.874s-15.189-.069-15.189-.069,1.846-17.317-9.64-27.321-9.861,2.872-9.861,2.872l-3.225,64.832,25.924,24.479S685.84,490.388,682.165,454.989Z" transform="translate(288.302 -232.379)"/><path class="e" d="M679.149,379.48s5.027-82.906-5.068-83.4c-55.511-2.735-109.967-.286-162.507,11.582l1.348,90.368L679.149,379.48Z" transform="translate(215.002 -247.942)"/><path class="f" d="M563.545,500.647c4.283-15.564,9.272-54.412,16.036-63.135,8.146-10.5,16.615-6.137,16.615-6.137s3.639-35.452,9.41-38.693c8.409-4.723,23.753-46.507,37.331-54.84,14.121-8.667,20.338-33.608,28.709-34.117,8.006-.487,5.646,62.594,5.045,69.49-4.205,48.181,29.241,33.709,18.272,105.4-2.741,17.917-30.039-9.88-32.6,5.012-5.476,31.805-37.313-9.642-62.831,3.273s-40.91,31.635-35.984,13.741Z" transform="translate(248.31 -242.291)"/><path class="f" d="M541.428,350.637c89.243-6.14,168.013-9.777,169.186-9.48-1.077,8.447-5.864,27.82-10.052,37.871-111.228-23.56-109.169-2.341-171.023,12.8,0,0-77.355-35.052,11.887-41.193Z" transform="translate(206.425 -217.881)"/><path class="h" d="M579.327,350.7c-3.525,8.683,39.606,1.981,76.559,43.28,11.8,13.183,9.825-29.4,9.842-42.2C665.736,345.4,586.105,334,579.327,350.7Z" transform="translate(259.071 -217.309)"/><path class="d" d="M619.88,293.44s-3.749-18.414,4.813-18.86c19.28-1.008,13.219,23.7,13.219,23.7s8.5-4.723,8.736,7.566-6.054,20.111-6.953,33.445-14.89,5.479-14.89,5.479Z" transform="translate(285.126 -261.324)"/><path class="b" d="M614.074,287.912c-.441-2.912,22.9,7.606,24.117,19.744s2.465,19.044,2.465,19.044-24.971-28.132-26.582-38.788Z" transform="translate(281.868 -252.926)"/><g transform="translate(0 8.679)"><path class="a" d="M114.423,304.515c3.715-8.1-1.4-26.6,14.4-31.713s26.8,10.166,25.667,25.549-23.157,10.774-34.97,18.266c-3.239,2.054,2.4-10.228,2.289-11.973C121.634,301.966,113.668,306.163,114.423,304.515Z" transform="translate(-44.132 -271.798)"/><path class="b" d="M252.327,415.218s-48.468,48.392-92.478,36.368c-29.133-7.96-53.557-50.937-28.743-65.8,12.671-7.588,61.674,6.469,80.91,6.7C268.919,393.154,252.327,415.218,252.327,415.218Z" transform="translate(-39.904 -198.896)"/><path class="i" d="M235.323,326.036c4.673,3.085,32.836,1.286,34.173,17.5s-12.466,33.051-37.633,44.4-124.8,69.753-124.8,69.753,30.556-136.835,62.1-135.956,41.594,6.585,48.666-3.125a99.934,99.934,0,0,0,10.7-18.5s2.12,22.846,6.795,25.931Z" transform="translate(-48.903 -253.331)"/><path class="j" d="M167.187,355.413s-2.158-23.13-2.8-34.976c-.668-12.348-14.543-19.444-29.7-1.542-4.78,5.646,25.71,17.112,25.71,17.112Z" transform="translate(-31.208 -248.116)"/><path class="i" d="M202.795,409.706s33.511-45.664,29.76-80.715c-1.578-14.739-27.845-.172-27.845-.172L164,404.364l-.317,11.853Z" transform="translate(-11.961 -238.788)"/><path class="h" d="M178.24,341.6c18.128,0,32.162,2.913,32.162,20.746a32.129,32.129,0,0,1-13.928,26.41,33.044,33.044,0,0,1-18.918,5.9c-18.128,0-32.846-14.478-32.846-32.313S160.112,341.6,178.24,341.6Z" transform="translate(-24.34 -226.26)"/><path class="a" d="M175.3,357.261c-11.24-8.736-41.824-77.017-59.005-52.361s-1.552,44.7,10.177,52.627S186.536,366,175.3,357.261Z" transform="translate(-47.85 -253.684)"/><ellipse class="k" cx="27.541" cy="9.771" rx="27.541" ry="9.771" transform="translate(125.682 118.284)"/><path class="j" d="M116.489,303.762s-7.2-12.646-.216-18.208,11.064,3.232,11.064,3.232,6.269-14.6,20.873-7.145,6.795,40.6-10.476,46.312S117.81,308.856,116.489,303.762Z" transform="translate(-44.882 -266.759)"/><rect class="l" width="92.436" height="108.263" transform="translate(60.074 117.238)"/><ellipse class="m" cx="31.275" cy="11.592" rx="31.275" ry="11.592" transform="translate(90.07 105.619)"/><path class="h" d="M156.449,313.09c15.62,0,27.712,2.379,27.712,16.94s-12.68,26.38-28.3,26.38-28.3-11.821-28.3-26.38S140.828,313.09,156.449,313.09Z" transform="translate(-35.53 -244.859)"/><ellipse class="k" cx="23.73" cy="7.977" rx="23.73" ry="7.977" transform="translate(96.604 70.636)"/><path class="j" d="M187.134,361.856c-31.624,5.089-65.068-34.624-60.37-58.837,5.388-27.769-56.334,52.536-4.4,71.9C172.513,393.615,192.188,361.043,187.134,361.856Z" transform="translate(-52.576 -255.199)"/><path class="j" d="M96.138,356.928c-5.256-42.913,36.328-67.722,36.328-67.722l.478,9.617S124.56,316.441,121.22,322.4c-7.209,12.869-8.247,18.571-8.247,18.571S98.4,375.425,96.138,356.928Z" transform="translate(-56.328 -260.441)"/><path class="a" d="M149.357,344.535a167.362,167.362,0,0,1-20.265,23.33c-12.3,11.75-29.061-5.061-29.061-5.061s-11.337-21.506.892-44.089a93.858,93.858,0,0,1,16.61-22.01s8.019,15.124,17.91,29.761S149.357,344.535,149.357,344.535Z" transform="translate(-56.61 -255.549)"/><path class="g" d="M140.238,354.854s9.731,1.39,3.539,10.646c-6.094,9.11-18.034,3.039-27.141,14.389s-6.484-3.579-6.484-3.579Z" transform="translate(-47.113 -217.613)"/><path class="g" d="M98.308,461.606c19.186,3.69,49.534,8.584,48.309-45.947-5.742-24.394-27.626-32.038-26.04-54.136S95.2,402,95.2,402,91.016,460.2,98.308,461.606Z" transform="translate(-57.42 -216.344)"/><path class="i" d="M175.757,291.412c5.724-5.522,11.714-16.681,35.5-4.84s11.906,34.1-10.152,42.519c-22.344,8.528-18.806,16.8-18.806,16.8S173.828,293.273,175.757,291.412Z" transform="translate(-4.271 -265.578)"/><path class="n" d="M185.513,364.829c12.752-12.383,3.959-33.755,14.881-44.117s6.783-27.914-12.325-22.669S175.1,320.872,175.1,320.872s4.242,1.279-1.365,8.87S177.509,372.6,185.513,364.829Z" transform="translate(-6.511 -255.3)"/><path class="e" d="M188.374,285.7c-2.158-8.191-37.5,32.874-10.441,43.853,0,0,3.758-4.577,14.3-6.382s20.5-15.161,8.444-17.752S191.661,298.18,188.374,285.7Z" transform="translate(-9.291 -263.43)"/><path class="h" d="M230.374,436.776s-74.122,47.936-118.616,1.537l20.159-29.254.542-15.592s4.39,33.75,33.874,45.153C192.359,448.687,230.374,436.776,230.374,436.776Z" transform="translate(-45.838 -192.422)"/><path class="f" d="M152.236,398.72c-4.832-8.06,20.192-11.112,17.813-36.245s-27.633-53.49-58.242-32.684S110.6,380.726,99.52,384.128c-35.7,10.96-42.334,85.68,13.232,99.8.61.154-4.82-35.983,9.058-49.377C131.431,425.268,167.977,424.979,152.236,398.72Z" transform="translate(-71.864 -238.667)"/></g><path class="d" d="M177.272,445.9c3.951-14.729,13.637-17.76,27.924,10.78,6.251,12.486,7.408,14.335,7.408,14.335s5.78-16.167,17.372-9.478c17.762,10.248,15.957,30.559,15.957,30.559s17.676-25.383,51.1-21.817c15.192,1.619-26.058,61.064,5.086,88.778,27.655,24.607,55.471-4.136,61.282,3.913,8.366,11.588-39.962,27.46-117.943-8.165-20.149-9.2-48.311-39.466-66.993-67.033s-5.144-27.146-1.193-41.873Z" transform="translate(-8.605 -156.688)"/><path class="a" d="M584.851,307.3c5.96,5.859,10.455,9.984,13.783,13.4,2.674,2.741,8.611,6.988,5.912,7.016-7.006.071-7.884,4.59-1.114,8.766,9.168,5.658-4.984,29.94-19.078,35.794s-1.826,21.929,24.862,6.768,19.726-18.428,32.556-22.532c27.079-8.667,25.406-23.335,23.925-30.888,0,0-25.164-12.9-30.454-20.139a21.649,21.649,0,0,0-13.031-8.4c-.887-5.058-39.82,7.8-37.361,10.222Z" transform="translate(258.631 -247.389)"/><path class="f" d="M237.452,347.069c-.754-2.854-3.156-3.954-6.054-6-3.675-2.593-7.391-5.8-6.874-12.816.641-8.69,17.334-14.3,21.017-3.9s-7.079,26.552-8.088,22.717Z" transform="translate(27.699 -232.504)"/><path class="f" d="M261.376,428.912c-43.045,3.857-46.184-63.369-39.059-75.6,10.015-14.69,13.892-14.237,14.7-18.933,2.733-15.9,26.1,1.418,24.257,21.711a404.9,404.9,0,0,0-.727,66.993S279.5,441.625,261.376,428.912Z" transform="translate(24.361 -226.345)"/><path class="b" d="M229.155,442.884c-19.953-63.779-1.3-77.255,5.46-91.88s27.63-13.325,30.26,6.881c4.818,37,66.15,14.166,66.15,14.166s-12.087,83.826-29.732,89.177C278.882,468.022,232.854,454.709,229.155,442.884Z" transform="translate(24.909 -217.84)"/><path class="g" d="M120.758,381.375a282.288,282.288,0,0,0,39.935,29.76c11.823,7.1,24.925,13.607,37.174,16.76,24.586,6.325,59.281-6.282,59.281-6.282s-44.177,51.087-102.055,26.24C115,430.641,120.758,381.375,120.758,381.375Z" transform="translate(-40.153 -191.631)"/><g transform="translate(665.796)"><path class="j" d="M575.745,291.879c-3.5,8.564-11.965,35.763-35.821,48.759-16.1,8.771-14.992-6.679-8.3-17.529,3.222-5.227,7.657-10.4,11.927-13.292,13.133-8.883,17.6-14.171,17.981-24.3C561.95,274.4,581.663,277.4,575.745,291.879Z" transform="translate(-440.726 -258.563)"/><path class="a" d="M492.994,412.489c25.031-.375,46.983-14.979,40.543-26.366-21.286-37.635,33.773-56.332,42.293-66.768.42-.516-10.866-20.589-11.56-20.179-14.482,8.549-32.939,18.943-41.447,26.82,0,0-21.248-2.018-30.155,23.641-4.893,14.09-1.581,62.882.326,62.852Z" transform="translate(-464.793 -245.262)"/><path class="j" d="M540.377,269.183c-7.542,5.5-27.759,19.647-34.515,45.626-4.561,17.535,5.955,13.351,14.941,4.245,4.328-4.385,8.3-9.913,10.063-14.7,5.422-14.741,9.5-20.323,19.366-23.249C561.063,277.888,553.125,259.89,540.377,269.183Z" transform="translate(-455.239 -266.546)"/><path class="j" d="M523.516,325.772c8.738-6.97,13.059-21,20.323-31.2s24.393-8.726,23.907,6.122-2.439,16.9-11.481,22.06c-9.158,5.228-21.367,13.3-20.3,24.054.4,4.066-60.792,69.05-60.792,69.05s26.075-65.02,34.687-72.306,4.919-10.807,13.655-17.778Z" transform="translate(-474.543 -252.536)"/><path class="a" d="M506.611,354.96c5.848-7.839,26.432-33.283,32.466-43.765,4.974-8.64-14.308-28.99-18.885-20.729s-11.112,14.764-22.284,28.279C482.071,337.906,485.2,383.667,506.611,354.96Z" transform="translate(-466.214 -252.202)"/><path class="a" d="M527.15,306.8c1.074-2.705,15.845,15.468,20.3,20.215,7.371,7.857-2.817,19.1-17.712,28.851-5.95,3.9-28.8,28.352-28.8,28.352s-12.76,4.4-24.155,18.376,29.976-71.39,29.976-71.39,16.526-14.642,20.4-24.4Z" transform="translate(-474.791 -240.463)"/></g><g transform="translate(657.677 75.568)"><path class="b" d="M533.626,357.477c11.522-8.516,17.22-25.662,26.8-38.127s33.064-7,32.425,11.145-2.48,21.883-15.714,25.27-20.384,15.133-13.426,24.664,34.291,30.781-25.065,53.6-68.765,33.52-68.765,33.52S504.263,388.1,515.62,379.2,522.1,365.993,533.626,357.477Z" transform="translate(-469.878 -312.061)"/><path class="d" d="M515.742,360.389c19.064-.844,33.441-15.025,33.441-15.025s-4.43-8.482.059-10.506,19.513.524,19.792-4.445c.57-10.171-5.264-18.247-16.823-18.133s-14.981,5.1-28.791,26.4S496.68,361.233,515.742,360.389Z" transform="translate(-446.219 -312.278)"/><path class="d" d="M520.009,420.356C507,428.9,487.29,367.428,487.29,367.428s18.033-22.253,33.983-28.259,37.614,10.618,43.177,27.466,13.236,19.7,13.236,19.7C558.246,416.344,536.419,414.813,520.009,420.356Z" transform="translate(-458.518 -295.553)"/><path class="b" d="M572.528,342.11c-5.4-6.976-16.666-4.513-18.542,7.563s-5.706,18.3-23.9,28.392-.018,35.5,13.3,21.767,22.709-31.315,28.041-41.1,5.141-11.41,1.1-16.626Z" transform="translate(-435.601 -295.333)"/></g><path class="c" d="M490.589,363.425c12.852-10.427,18.026-17.532,22.45-35.629,5.773-23.613,44.375-13.912,43.661,8.3s-4.645,29.54-19.407,33.687-14.951,9.911-7.19,21.579,37.133,28.55-29.081,56.491-34.6-31.049-34.6-31.049.81-6.178,4.1-22.563c1.951-9.719,7.219-20.389,20.072-30.817Z" transform="translate(180.622 -235.51)"/><path class="i" d="M484.087,457.176c9.923,2.586,14.156,3.939,20.589,10.293s14.351,15.2,14.351,15.2-2.619,4.119-10.1-.215-11.846-11.091-17.319-9.123-18.666,9.2-24.287,15.589-10.5,9.207-10.883,5.312,6.182-11.765,4.445-20.384-5.787-13.269-3.9-19.939S475.864,455.033,484.087,457.176Z" transform="translate(179.019 -146.037)"/><path class="n" d="M423.845,432.224c12.522,22.4,50.573,41.455,56.3,54.1,1.522,3.359-.489,17.953,14.3,11.134,13.485-6.218,32.394-1.963,32.394-1.963s-11.815-8.371-16.124-10.237c-5.939-2.571-11.788-3.99-19.723-13.455-15.807-18.857-34.486-68.277-49.134-66.952s-30.531,4.972-18.008,27.377Z" transform="translate(154.811 -176.335)"/><path class="i" d="M480.657,367.763c-9.27-7.9-32.794-48.777-73.243-56.229-23.086-4.253-38,23.618-21.532,40.35h0a23.911,23.911,0,0,0,19.971,6.971c14.964-1.842,41.569-2.113,58.112,15.146C487.986,399.062,493.379,378.606,480.657,367.763Z" transform="translate(128.449 -237.48)"/><path class="e" d="M478.559,361.868c5.121-5.942,15.823,6.676,3.082,19.944s-41.394,19.084-51.634,4.5-11.714-29.137-1.452-27.722S473.436,367.81,478.559,361.868Z" transform="translate(156.272 -206.559)"/><path class="i" d="M434.039,388.453c3.473-5.924,2.135-18.086,5.284-30.482,5.322-20.952,48.767-29.518,52.8,10.433,4.509,44.643-23.671,39.762-39.781,46.728-19.394,8.389-47.8,23.054-45.981-6.424S430.566,394.376,434.039,388.453Z" transform="translate(146.309 -218.401)"/><path class="e" d="M435.917,377.826c3.619-15.248,22.641-17.216,23.244-1.684s-11.54,39.081-23.444,49.939c-3.885,3.546-34.646-14.521-21.531-22.521C422.8,398.307,431.917,394.682,435.917,377.826Z" transform="translate(149.356 -202.053)"/><path class="i" d="M507.436,390.515c4.278,27.179,4.914,59.749-40.5,82.393-24.609,12.271-62.978,8.621-92.967,2.7a381.814,381.814,0,0,1-44.727-11.636s77.111-39.955,97.27-65.283S501,349.647,507.436,390.515Z" transform="translate(96.046 -200.074)"/><g transform="translate(219.27 133.318)"><path class="f" d="M244.257,435.331s-21.453-15.24-22.9-34.542,23.067-37.3,43.5-12.943c17.276,20.6-14.077,52.353-12.537,64.379s-8.069-16.894-8.069-16.894Z" transform="translate(-193.643 -328.409)"/><path class="f" d="M236.18,462.255s-1.266,7.672,18.662,11.458,25.077,8.858,28.833,23.955S378.2,519.4,378.2,519.4s-19.773-94.071-91.168-109.313C246.046,401.334,228.633,451.23,236.18,462.255Z" transform="translate(-185.055 -306.887)"/><path class="h" d="M230.526,425.861s-13.052-9.909-8.358-18.274,6.22,7.609,9.536-6.862,16.131-33.641,31.8-15.24,8.707,32.217,3.591,41.264,12.428,18.023,12.428,18.023l-31.976,17.112s-8.839-28.765-17.02-36.022Z" transform="translate(-193.741 -327.202)"/><path class="h" d="M214.39,429.843s-17.517,10.331-5.778,29.953,51.672,31.853,81.423-22.78l1.312-17.76s-46.692,29.8-57.964,22.36-18.993-11.773-18.993-11.773Z" transform="translate(-204.562 -300.236)"/><path class="g" d="M282.532,406.036c-25.435,2.112-31.731,24.308-43.445,28.914-10.339,4.067-16.679-1.621-28.648,3.538,0,0,27.577,45.034,78.011,6.046,30.6-23.659,28.5-23.646,18.621-27.365-6.4-2.411-14.9-11.934-24.54-11.132Z" transform="translate(-200.728 -308.892)"/><path class="h" d="M340.167,603.635s21.149-62.337-62.7-126.628,6.054,64.944,6.054,64.944,50.225,25.2,56.649,61.684Z" transform="translate(-180.333 -274.26)"/><path class="f" d="M244.923,522.437s41.084,13.118,75.675,38.157c0,0-4.1-61.373-45.178-94.98s-72.215,36.333-30.5,56.823Z" transform="translate(-191.125 -275.859)"/><path class="g" d="M290.118,463.337s-35.938-16.747-54.712.945-10.823,48.331,54.083,54.567,60.59,1.8,60.59,1.8-43.39-53.151-59.961-57.308Z" transform="translate(-190.224 -276.156)"/><path class="i" d="M280.775,457.646s-1.264,7.672,18.664,11.458,25.075,8.858,28.833,23.955a33.007,33.007,0,0,0,15.756,20.959s54.331-98.374-22.9-128.733c-40.882-9.245-47.9,61.337-40.352,72.362Z" transform="translate(-156.578 -322.942)"/><path class="n" d="M255.817,410.96s-17.517,10.331-5.778,29.953,51.672,31.853,81.424-22.78l1.312-17.76s-46.692,29.8-57.964,22.362-18.993-11.775-18.993-11.775Z" transform="translate(-177.536 -312.555)"/><path class="n" d="M271.422,405.607a17.539,17.539,0,0,1,11.04,3.548c4.919,3.949,29.051-12.461,29.051-12.461l-10.425-16.111-34.9-9.873-6.3,17.753,11.527,17.144Z" transform="translate(-168.464 -331.907)"/><path class="e" d="M309,383.567c-25.435,2.112-26.813,21.519-31.439,37.075-3.736,12.575-15.014-4.673-25.716,1.595,0,0,27.607,44.907,78.039,5.919S333.53,381.529,309,383.567Z" transform="translate(-173.713 -323.716)"/><path class="i" d="M273.713,393.091s8.64,16.208,33.473,14.609,47.526-57.489-3.9-60.377c-28.662-1.609-46.73,17.615-48.774,26.124C251.858,384.473,271.424,390.9,273.713,393.091Z" transform="translate(-172.139 -347.227)"/><path class="e" d="M252.709,383.122c2.994,32.235,16.035,29.49,27.641,28.664,0,0-10.765-6.795-9.412-14.994s7.284-15.425,2.082-24.715S260.882,369,260.1,373.9c0,0,1.056-10.689-2.394-11.841s-5.339,17.35-5,21.061Z" transform="translate(-173.178 -337.584)"/><path class="e" d="M231,585.476s64.387,13.692,118.4-77.124-63.784,13.631-63.784,13.631S266.482,574.817,231,585.476Z" transform="translate(-187.315 -266.32)"/><path class="i" d="M283.371,480.08s-4.87,36.068-25.678,73.358c0,0,57.13-5,85.687-49.737S298.826,436.249,283.371,480.08Z" transform="translate(-169.9 -275.94)"/><path class="e" d="M343.6,452.2s-42.125-22.109-64.131,1.246-12.685,63.8,63.394,72.035,81.119,5.456,81.119,5.456S363.018,457.691,343.6,452.2Z" transform="translate(-162.475 -284.918)"/></g><path class="o" d="M592.888,320.258c3.734,8.852-1.823,19.662-12.4,24.125s-22.2.9-25.933-7.953,1.821-19.662,12.4-24.125,22.2-.9,25.934,7.953Z" transform="translate(242.282 -237.948)"/><ellipse class="p" cx="15.498" cy="15.498" rx="15.498" ry="15.498" transform="translate(669.863 377.807)"/><path class="b" d="M190.941,531.452c-19.047-24.55-49.007-71.721-52.3-136.843-1.355-26.805,26.387-19.923,31.759,16s7.561,47.657,7.561,47.657,3.637-19.113,18.421-12.029,2.457,21.111,15.685,63.622,51.077,81.376,51.077,81.376-40.71-19.188-72.2-59.78Z" transform="translate(-28.329 -193.633)"/><path class="g" d="M230.89,330.693s-6.79,2.517-2.138,5.668,5.129,3.751,5.274,10.67c.121,5.683,8.842,9.488,10.116,2.65,1.086-5.826,3.027-8.222,3.675-12.97.615-4.524-3.824-20.163-12.271-17.335s-4.656,11.317-4.656,11.317Z" transform="translate(29.426 -232.301)"/><path class="d" d="M228.477,368.883c2.034-9.212,14.387-16.2,16.656-27.737s-.2-21.767,10.331-23.185S268.5,328.122,268.917,335.7s-6.981,3.776-10.242,13.946a63.225,63.225,0,0,0-2.771,12.576c-.441,4.024-3.462-.307-8.74-.9S225.724,381.352,228.477,368.883Z" transform="translate(30.105 -233.08)"/><path class="c" d="M239.964,336.226c-.511-5.527-4.571-10.433-2.475-14,3.946-6.709,17.643-9.815,19.586-5.527,2.5,5.524,2.341,7.35,2.341,7.35s-6.778-1.158-6.387,2.28c.588,5.149,2.122,5.362-2.994,4.813-6.206-.666-.6,10.311-5.645,13.239s-5.36.712-5.36.712,1.224-5.709.934-8.872Z" transform="translate(35.799 -235.108)"/><path class="d" d="M263.533,403.71s-25.7-18.7-23.477-46.573c1.064-13.35,13.935,4.607,24.457,11.254C264.513,368.392,258.662,383.245,263.533,403.71Z" transform="translate(37.775 -210.584)"/><g transform="translate(877.209 4.296)"><rect class="k" width="5.103" height="22.78" transform="translate(1.447 15.432)"/><rect class="k" width="5.103" height="22.78" transform="translate(25.624 14.558)"/><ellipse class="k" cx="16.011" cy="7.242" rx="16.011" ry="7.242" transform="translate(0 6.325)"/><ellipse class="k" cx="13.461" cy="10.142" rx="13.461" ry="10.142" transform="translate(2.648)"/><ellipse class="k" cx="13.851" cy="5.581" rx="13.851" ry="5.581" transform="translate(2.226 9.613)"/><ellipse class="k" cx="16.011" cy="7.242" rx="16.011" ry="7.242" transform="translate(0 29.169)"/><path class="f" d="M626.491,289.452c-.051,3.159-5.076-3.688-5.076-3.688l-.051-4.005s-2.875-5.532,12.515-6.786c7.613-.621,2.594,8.541.669,11.017-.6.77-8.031-1.226-8.031-1.226S626.531,287.034,626.491,289.452Z" transform="translate(-619.964 -265.364)"/><rect class="k" width="5.103" height="30.324" transform="translate(14.003 8.501)"/></g><path class="f" d="M653.074,331.362s-48.007-11.221-54.045-28.649c0,0,4.473-12.651,12.191-13.629s19.83-3.655,27.149,2.267C651.332,301.841,650.911,320.845,653.074,331.362Z" transform="translate(272.056 -252.792)"/><path class="j" d="M515.528,546.981c-10.881,16.063,3.321-33.881,42.577-79.441,9.016-10.463,41.047,10.1,52.7.948,8.665-6.8-3.632-43.79,6.494-49.043a151.62,151.62,0,0,1,55.932-16.658c102.46-9.638,106.365,115.2,36.933,98.151C619.981,478.8,540.19,510.58,515.529,546.981Z" transform="translate(215.271 -178.008)"/><path class="d" d="M596.218,448.207c1.254-13.793-.5-19.731-8.234-33.478-9.529-16.942,6.681-46.636,39.016-22.749s34.127,25.878,47.149,31.792-15.89,27.354-37.139,29.88S594.6,465.958,596.218,448.207Z" transform="translate(263.083 -190.543)"/><path class="b" d="M649.622,357.812c-10.3,7.337-5.621,34.424,13.786,31.455,15.433-2.361,10.737,13.677,8.132,19.637s-13.674,28.811-39.334,40.461-43.341,11.616-43.341,11.616l-3.981,19.249S661.85,501.7,689.452,462.467s12.965-58.384,5.251-72.681-22.58-48-45.081-31.974Z" transform="translate(262.829 -209.762)"/><path class="d" d="M671.413,478.22c.59,14.782,2.6-67.8-6.5-89.342s-23.816-.03-21.349,21.329S670.774,462.186,671.413,478.22Z" transform="translate(300.935 -192.565)"/><path class="g" d="M582.478,440.044c4.243-13.312,8.992-36.592,20.952-38.521,14.3-2.305,18.328,33.076,8.113,52.057s-18.618,19.181-36.992,24.783S561.845,457.6,561.845,457.6,571.789,473.568,582.478,440.044Z" transform="translate(247.259 -178.557)"/><path class="f" d="M637.692,436.582c-9.367,24.279-80.315,41.462-95.209,44.349s-21.209,16.043-21.209,16.043a34.354,34.354,0,0,1,.407-36.672c8-12.928,31.114-27.9,47.7-22.395,11.3,3.751,3.468-3.736,26,.664,18.732,3.658,44.677-8.108,42.316-1.989Z" transform="translate(217.99 -156.787)"/><path class="h" d="M566.615,446.305a197.136,197.136,0,0,1,4.432-22.747,17.505,17.505,0,0,1,10.476-11.673c28.856-10.055,45.418,27.354,34.745,39.182s-32.354,23.613-53.308,5.967S564.314,452.386,566.615,446.305Z" transform="translate(242.718 -172.833)"/><path class="g" d="M574.029,459.97c5.765,3.11-3.83,6.135-13.566,1.2-22.7-11.509-40.252-32.957-28.593-41.7,13.69-10.271,67.859,38.3,92.035,34.415,0,0-7.39,7.308-22.2,7.181-19.4-.167-42.088-12.269-42.088-12.269a55.067,55.067,0,0,0,14.417,11.18Z" transform="translate(225.822 -167.715)"/><path class="h" d="M528.652,421.287s10.37,15.276,31.437,25.863c5.053,2.538,19.313,7.733,25.634,9.465,6.426,1.763-7.348,12.745-26.807,3.63s-32.352-24.75-30.264-38.959Z" transform="translate(225.999 -165.593)"/><path class="h" d="M655.856,435.942c-10.1,0-17.924,1.538-17.924,10.955s8.2,17.061,18.3,17.061,18.305-7.644,18.305-17.061S665.958,435.942,655.856,435.942Z" transform="translate(297.437 -156.032)"/><rect class="q" width="4.65" height="27.177" transform="translate(950.287 298.09)"/><ellipse class="k" cx="15.348" cy="5.159" rx="15.348" ry="5.159" transform="translate(938.321 281.464)"/><path class="g" d="M566.1,418.358c-.506,7.839,2.712,13.1,9.5,15.873,0,0,13.733-.433,10.957,8.156-2.318,7.171-11.973,6.42-11.973,6.42l-13.239-8.578s2.251-12.735,4.754-21.871Z" transform="translate(247.47 -167.504)"/><ellipse class="q" cx="14.49" cy="8.031" rx="14.49" ry="8.031" transform="translate(938.395 318.209)"/><ellipse class="q" cx="18.65" cy="8.975" rx="18.65" ry="8.975" transform="translate(876.054 285.655)"/><path class="j" d="M608.77,329.028c.043.083,18.085-5.987,27.413,11.286,0,0,8.331-14.954,5.532-21.712-.972-2.346-3.65-3.637-6.738-5.888-5.8-4.232-13.289-9.845-16.59-17.514-1.109-2.579-47.589,1.479-47.078.783C572.155,294.83,607.3,326.2,608.77,329.028Z" transform="translate(253.969 -248.418)"/><path class="f" d="M622.216,362.383c11.129,5.028,8.193,8.232,17.316,5.631,8.4-2.4-2.386,12.267,13.953,14.642,5.526.8,10.228-1.548,13.231,1.39,0,0-5.636-14.792-14.738-25.143-6.734-7.654-12.172-8.277-19.924-4.751C623.559,358.015,622.05,362.308,622.216,362.383Z" transform="translate(287.176 -210.739)"/><path class="n" d="M189.528,350.275c-4.686,1.153-10.666,31.27-13.753,33.284-1.857,1.211,18.031-3.194,22.259-16.532S194.213,349.121,189.528,350.275Z" transform="translate(-4.153 -212.033)"/><path class="j" d="M202.538,367.016c32.3,0,58.278,10.37,58.278,33.352s-26.22,41.64-58.516,41.64-58.518-18.659-58.518-41.64S170.242,367.016,202.538,367.016Z" transform="translate(-24.945 -200.999)"/><ellipse class="m" cx="49.065" cy="22.436" rx="49.065" ry="22.436" transform="translate(128.725 171.05)"/><path class="f" d="M153.775,395.632c6.672-7.679,23.076-13.113,42.234-13.113,19.317,0,35.834,5.526,42.4,13.307-8.561,6.575-24.259,10.983-42.192,10.983C178.108,406.808,162.277,402.314,153.775,395.632Z" transform="translate(-18.426 -190.886)"/><path class="o" d="M598.53,326.364l-11.288-10.372s16.232-25.373,26.177-15.319a114.2,114.2,0,0,0,9.511,7.875,100.955,100.955,0,0,0,8.787,6.175s3.554,15.1-5.109,22.269S626.449,323.649,598.53,326.364Z" transform="translate(264.367 -245.819)"/><path class="a" d="M564.137,296.04c1.466,3.483,6.248,14.027,3.7,22.982s3.462,20.614,16.208,11.478,12.915-17.909,12.915-17.909c-5.631-5.022-12.021-10.97-20.308-17.223,0,0-12.865-.165-12.514.673Z" transform="translate(249.288 -247.751)"/><path class="a" d="M585.12,369.177c6.177-.458,7.923,2.289,12.221,1.74s2.251-6.871,5.2-7.509,9.957,1.165,13.636-1.018,3.33-8.3,6.386-10.688,10.556-.281,14.449-2.844,2.7-8.569,6.5-9.959,5.643.927,10.352-1.421,8.539-11,8.774-16.468-23.188,9.143-42.41,21.425-41.277,27.2-35.1,26.741Z" transform="translate(262.292 -231.783)"/></g></svg>