<svg xmlns="http://www.w3.org/2000/svg" width="160" height="41.249" viewBox="0 0 160 41.249"><defs><style>.a{fill:#ff8201;}</style></defs><g transform="translate(-67.992 -344.905)"><path class="a" d="M167.1,363.63v14.861a4.972,4.972,0,0,0,.326,2.076,2.771,2.771,0,0,0,1.15,1.15l1.921,1.1-1.579,2.814a14.263,14.263,0,0,1-4.187-2.746,5.323,5.323,0,0,1-1.2-3.74V363.63Z" transform="translate(-46.432 -9.1)"/><path class="a" d="M178.976,377.9a8.558,8.558,0,0,1,4.736-4.8,10.423,10.423,0,0,1,7.619,0,8.562,8.562,0,0,1,4.736,4.8,8.732,8.732,0,0,1,0,6.452,8.561,8.561,0,0,1-4.736,4.805,10.43,10.43,0,0,1-7.619,0,8.557,8.557,0,0,1-4.736-4.805,8.732,8.732,0,0,1,0-6.452m4.7,7.053a5.534,5.534,0,0,0,7.705,0,5.558,5.558,0,0,0,0-7.654,5.533,5.533,0,0,0-7.705,0,5.514,5.514,0,0,0,0,7.654" transform="translate(-53.636 -13.35)"/><path class="a" d="M220.423,379.034a6.635,6.635,0,0,1,1.767-4.856,5.8,5.8,0,0,1,4.307-1.8,5.894,5.894,0,0,1,3.158.806,4.3,4.3,0,0,1,1.819,2.145h.068a4.277,4.277,0,0,1,1.837-2.145,5.912,5.912,0,0,1,3.14-.806,5.8,5.8,0,0,1,4.307,1.8,6.635,6.635,0,0,1,1.768,4.856v10.4h-3.569V379.068a3.2,3.2,0,0,0-.79-2.282,2.575,2.575,0,0,0-1.956-.841,2.819,2.819,0,0,0-2.179.875,3.928,3.928,0,0,0-.806,2.729v9.884h-3.57v-9.884a3.93,3.93,0,0,0-.806-2.729,2.821,2.821,0,0,0-2.179-.875,2.575,2.575,0,0,0-1.957.841,3.2,3.2,0,0,0-.789,2.282v10.365h-3.569Z" transform="translate(-74.079 -13.35)"/><path class="a" d="M284.106,387.408h-.069a5.957,5.957,0,0,1-2.316,1.8,7.453,7.453,0,0,1-3.141.669,8.488,8.488,0,0,1-3.569-.738,8.309,8.309,0,0,1-2.746-1.99,8.655,8.655,0,0,1-1.716-2.832,9.129,9.129,0,0,1-.583-3.192,8.388,8.388,0,0,1,.618-3.106,9.326,9.326,0,0,1,1.784-2.848,8.567,8.567,0,0,1,2.815-2.042,8.464,8.464,0,0,1,3.569-.755,7.074,7.074,0,0,1,3.175.687,5.2,5.2,0,0,1,2.111,1.784h.069v-2.025h3.569v16.611h-3.569Zm-9.953-4.2a5.516,5.516,0,0,0,1.149,1.733A5.242,5.242,0,0,0,277,386.1a5.084,5.084,0,0,0,2.024.411,5.1,5.1,0,0,0,3.673-1.578,5.67,5.67,0,0,0,1.133-1.733,5.441,5.441,0,0,0,0-4.153,5.663,5.663,0,0,0-1.133-1.733,5.1,5.1,0,0,0-5.7-1.167,5.242,5.242,0,0,0-1.7,1.167,5.51,5.51,0,0,0-1.149,1.733,5.435,5.435,0,0,0,0,4.153" transform="translate(-98.156 -13.35)"/><path class="a" d="M324.968,383.158H324.9a5.957,5.957,0,0,1-2.317,1.8,7.449,7.449,0,0,1-3.141.669,8.485,8.485,0,0,1-3.569-.738,8.309,8.309,0,0,1-2.746-1.99,8.656,8.656,0,0,1-1.716-2.832,9.13,9.13,0,0,1-.583-3.192,8.4,8.4,0,0,1,.618-3.106,9.316,9.316,0,0,1,1.784-2.848,8.567,8.567,0,0,1,2.815-2.042,8.463,8.463,0,0,1,3.569-.755,7.075,7.075,0,0,1,3.175.687A5.2,5.2,0,0,1,324.9,370.6h.068V363.63h3.57v21.553h-3.57Zm-9.952-4.2a5.508,5.508,0,0,0,1.149,1.733,5.24,5.24,0,0,0,1.7,1.167,5.084,5.084,0,0,0,2.024.411,5.1,5.1,0,0,0,3.673-1.578,5.687,5.687,0,0,0,1.133-1.733,5.441,5.441,0,0,0,0-4.153,5.682,5.682,0,0,0-1.133-1.733,5.062,5.062,0,0,0-1.681-1.167,5.009,5.009,0,0,0-1.991-.411,5.083,5.083,0,0,0-2.024.411,5.242,5.242,0,0,0-1.7,1.167,5.5,5.5,0,0,0-1.149,1.733,5.435,5.435,0,0,0,0,4.153" transform="translate(-118.015 -9.1)"/><path class="a" d="M353.46,384.491a8,8,0,0,0,2.437,1.75,6.442,6.442,0,0,0,2.78.687,3.942,3.942,0,0,0,2.369-.669,1.832,1.832,0,0,0,.926-1.424,1.585,1.585,0,0,0-.566-1.27,3.253,3.253,0,0,0-1.6-.652l-2.025-.378a10.288,10.288,0,0,1-4.667-1.733,3.746,3.746,0,0,1-1.3-3,4.978,4.978,0,0,1,1.767-3.826,6.825,6.825,0,0,1,4.753-1.6,10.077,10.077,0,0,1,3.329.549,13.1,13.1,0,0,1,3.261,1.75l-2.025,2.505a7.72,7.72,0,0,0-2.334-1.441,6.234,6.234,0,0,0-2.128-.412,3.976,3.976,0,0,0-2.145.566,1.729,1.729,0,0,0-.91,1.528q0,1.373,2.162,1.75l3.6.687q4.393.823,4.393,4.427a4.97,4.97,0,0,1-.412,1.939,5.584,5.584,0,0,1-1.27,1.819,6.1,6.1,0,0,1-2.213,1.339,9.1,9.1,0,0,1-3.141.5,11.313,11.313,0,0,1-7.482-2.917Z" transform="translate(-137.549 -13.35)"/><path class="a" d="M88.617,348.1a7.945,7.945,0,0,1,5.66,2.331l4.121,4.121,5.319,5.318a8.013,8.013,0,0,1,0,11.319l-4.962,4.962-4.477,4.477a8.037,8.037,0,0,1-11.319,0l-4.972-4.972-4.468-4.467a8.037,8.037,0,0,1,0-11.319l5.083-5.082,4.357-4.357a7.944,7.944,0,0,1,5.659-2.331m0-3.2a11.164,11.164,0,0,0-7.918,3.266l-4.357,4.358-5.083,5.082a11.231,11.231,0,0,0,0,15.837l4.468,4.468,4.972,4.972a11.232,11.232,0,0,0,15.837,0l4.478-4.478,4.963-4.963a11.232,11.232,0,0,0,0-15.837l-5.319-5.318-4.122-4.122a11.163,11.163,0,0,0-7.918-3.266" transform="translate(0 0)"/><path class="a" d="M97.913,365.3a4.559,4.559,0,0,1,3.248,1.338l4.94,4.94a4.6,4.6,0,0,1,0,6.495l-4.94,4.94a4.611,4.611,0,0,1-6.5,0l-4.94-4.94a4.6,4.6,0,0,1,0-6.495l4.94-4.94a4.56,4.56,0,0,1,3.248-1.338m0-1.267a5.841,5.841,0,0,0-4.143,1.709l-4.94,4.94a5.878,5.878,0,0,0,0,8.287l4.94,4.94a5.878,5.878,0,0,0,8.287,0l4.939-4.94a5.878,5.878,0,0,0,0-8.287l-4.939-4.94a5.842,5.842,0,0,0-4.144-1.709" transform="translate(-9.296 -9.296)"/><path class="a" d="M95.307,358.246h0a6.3,6.3,0,0,1,5.1,2.583l5.6,7.725a6.3,6.3,0,0,1-1.4,8.76l-7.725,5.6a6.2,6.2,0,0,1-3.664,1.185,6.3,6.3,0,0,1-5.1-2.583l-5.6-7.725a6.28,6.28,0,0,1,1.4-8.76l7.725-5.6a6.2,6.2,0,0,1,3.664-1.185m0-1.731a7.952,7.952,0,0,0-4.68,1.514l-7.725,5.6A8.027,8.027,0,0,0,81.117,374.8l5.6,7.725a8.024,8.024,0,0,0,11.177,1.785l7.725-5.6a8.027,8.027,0,0,0,1.784-11.177l-5.6-7.725a8.01,8.01,0,0,0-6.5-3.3" transform="translate(-5.642 -5.642)"/><path class="a" d="M105.006,374.389h0a2.608,2.608,0,0,1,2.524,1.731l.006.02.006.02,1.117,3.756a2.3,2.3,0,0,1-1.664,2.781l-3.347.855a2.257,2.257,0,0,1-.564.071,2.3,2.3,0,0,1-2.234-1.731l-.005-.02-.006-.019L99.721,378.1a2.311,2.311,0,0,1,1.664-2.781l.012,0,.012,0,3.023-.851a2.379,2.379,0,0,1,.574-.068m0-1.046a3.4,3.4,0,0,0-.843.1l-3.036.855a3.356,3.356,0,0,0-2.414,4.071l1.124,3.778a3.361,3.361,0,0,0,3.248,2.518,3.316,3.316,0,0,0,.823-.1l3.347-.855a3.357,3.357,0,0,0,2.414-4.071l-1.124-3.777a3.649,3.649,0,0,0-3.538-2.518" transform="translate(-14.879 -13.82)"/></g></svg>